<svg xmlns="http://www.w3.org/2000/svg" width="240" height="240" viewBox="0 0 240 240" fill="none">
  <rect width="240" height="240" rx="120" fill="#ECFBFF"/>
  <circle cx="120" cy="94" r="42" fill="#FFD5B7"/>
  <path d="M64 171c12-30 34-45 56-45s44 15 56 45" fill="#26A6D1"/>
  <circle cx="104" cy="92" r="4" fill="#1E2D33"/>
  <circle cx="136" cy="92" r="4" fill="#1E2D33"/>
  <path d="M106 110c4 5 9 8 14 8 5 0 10-3 14-8" stroke="#1E2D33" stroke-width="4" stroke-linecap="round"/>
  <path d="M80 76c9-18 26-28 45-28 20 0 37 11 46 29-10-5-20-7-31-6-18 1-29 10-60 5z" fill="#20495C"/>
</svg>
