<svg xmlns="http://www.w3.org/2000/svg" width="240" height="240" viewBox="0 0 240 240" fill="none">
  <rect width="240" height="240" rx="120" fill="#EEF0FF"/>
  <circle cx="120" cy="94" r="42" fill="#FFD7B5"/>
  <path d="M64 170c12-30 32-45 56-45s44 15 56 45" fill="#8C74FF"/>
  <circle cx="104" cy="93" r="4" fill="#2E3149"/>
  <circle cx="136" cy="93" r="4" fill="#2E3149"/>
  <path d="M106 111c4 5 9 8 14 8 5 0 10-3 14-8" stroke="#2E3149" stroke-width="4" stroke-linecap="round"/>
  <path d="M80 74c11-17 26-26 44-26 17 0 31 8 43 24-11-2-20-2-28 0-16 3-30 11-59 2z" fill="#2D2C68"/>
</svg>
