<svg xmlns="http://www.w3.org/2000/svg" width="240" height="240" viewBox="0 0 240 240" fill="none">
  <rect width="240" height="240" rx="120" fill="#E8FFF4"/>
  <circle cx="120" cy="94" r="42" fill="#F8CFAF"/>
  <path d="M66 171c14-31 33-45 54-45s40 14 54 45" fill="#39B07F"/>
  <circle cx="104" cy="92" r="4" fill="#263238"/>
  <circle cx="136" cy="92" r="4" fill="#263238"/>
  <path d="M106 110c4 5 10 8 14 8s10-3 14-8" stroke="#263238" stroke-width="4" stroke-linecap="round"/>
  <path d="M86 79c5-18 19-30 35-33 20-3 39 7 51 24-20-7-34-7-45-5-16 3-27 12-41 14z" fill="#184D3F"/>
</svg>
