<svg xmlns="http://www.w3.org/2000/svg" width="240" height="240" viewBox="0 0 240 240" fill="none">
  <rect width="240" height="240" rx="120" fill="#FFF3F8"/>
  <circle cx="120" cy="94" r="42" fill="#FFD9C2"/>
  <path d="M66 171c12-30 33-45 54-45s42 15 54 45" fill="#EF5FA1"/>
  <circle cx="104" cy="92" r="4" fill="#312732"/>
  <circle cx="136" cy="92" r="4" fill="#312732"/>
  <path d="M106 110c4 5 9 8 14 8 5 0 10-3 14-8" stroke="#312732" stroke-width="4" stroke-linecap="round"/>
  <path d="M86 76c9-18 28-29 49-27 14 2 28 10 36 22-13-4-24-5-34-3-16 3-28 12-51 8z" fill="#4A2C3E"/>
</svg>
